# xmcd
#
# Track frame offsets:
#	150
#	13390
#	34056
#	48921
#	70813
#	83206
#
# Disc length: 1273 seconds
#
# Revision: 0
# Processed by: cddbd v1.5.2PL0 Copyright (c) Steve Scherf et al.
# Submitted via: audiograbber 1.83.01
#
DISCID=4804f706
DTITLE=Artists Carousel - Artists Carousel 006 b
DYEAR=2006
DGENRE=Country
TTITLE0=Just Questions No Answers Today  - Bob Lindsey
TTITLE1=Put Me In Your Pocket  - Flo and Gene Hopper
TTITLE2=After The Loving - Barry Wood
TTITLE3=Let The Healing Begin  - Norma Baker
TTITLE4=Little Jewel Rose  - Shyanne
TTITLE5=Unending Love  - Doreen Brown
EXTD=
EXTT0=
EXTT1=
EXTT2=
EXTT3=
EXTT4=
EXTT5=
PLAYORDER=
